# xmcd
#
# Track frame offsets:
#	150
#	14030
#	27780
#	41640
#	52747
#
# Disc length: 1689 seconds
#
# Revision: 0
# Processed by: cddbd v1.5PL3 Copyright (c) Steve Scherf et al.
# Submitted via: dBpowerAMP V4.0
#
DISCID=35069705
DTITLE=Lefty Frizzell - American Originals
DYEAR=1900
DGENRE=Country
TTITLE0=Saginaw Michican/ Mom And Dad Waltz
TTITLE1=Long Black Veil/A Little Unfair
TTITLE2=Don't Stay Away (Til Love Grows Old)/She's Gone, Gone, Gone
TTITLE3=Always Late (With Your Kisses)/Look What Thoughts Will Do
TTITLE4=I Want To Be With You Always/Forever (And Always)
EXTD=
EXTT0=
EXTT1=
EXTT2=
EXTT3=
EXTT4=
PLAYORDER=
